<svg width="16" height="16" viewBox="0 0 16 16" fill="none" xmlns="http://www.w3.org/2000/svg">
<path d="M1 2.93213C1.885 2.56213 3.154 2.16313 4.388 2.03913C5.718 1.90513 6.846 2.10213 7.5 2.79113V12.5371C6.565 12.0071 5.38 11.9341 4.287 12.0441C3.107 12.1641 1.917 12.5051 1 12.8551V2.93213ZM8.5 2.79113C9.154 2.10213 10.282 1.90513 11.612 2.03913C12.846 2.16313 14.115 2.56213 15 2.93213V12.8551C14.082 12.5051 12.893 12.1631 11.713 12.0451C10.619 11.9341 9.435 12.0061 8.5 12.5371V2.79113ZM8 1.88713C7.015 1.04013 5.587 0.914129 4.287 1.04413C2.773 1.19713 1.245 1.71613 0.293 2.14913C0.205649 2.18886 0.131575 2.25288 0.079621 2.33356C0.0276667 2.41424 2.65714e-05 2.50817 0 2.60413L0 13.6041C2.3162e-05 13.6878 0.0210371 13.7701 0.0611171 13.8435C0.101197 13.917 0.159062 13.9792 0.229411 14.0244C0.29976 14.0697 0.380345 14.0966 0.463783 14.1027C0.547222 14.1087 0.630848 14.0938 0.707 14.0591C1.589 13.6591 3.01 13.1781 4.387 13.0391C5.796 12.8971 6.977 13.1261 7.61 13.9161C7.65685 13.9745 7.71622 14.0217 7.78372 14.054C7.85122 14.0864 7.92513 14.1032 8 14.1032C8.07487 14.1032 8.14878 14.0864 8.21628 14.054C8.28378 14.0217 8.34315 13.9745 8.39 13.9161C9.023 13.1261 10.204 12.8971 11.612 13.0391C12.99 13.1781 14.412 13.6591 15.293 14.0591C15.3692 14.0938 15.4528 14.1087 15.5362 14.1027C15.6197 14.0966 15.7002 14.0697 15.7706 14.0244C15.8409 13.9792 15.8988 13.917 15.9389 13.8435C15.979 13.7701 16 13.6878 16 13.6041V2.60413C16 2.50817 15.9723 2.41424 15.9204 2.33356C15.8684 2.25288 15.7944 2.18886 15.707 2.14913C14.755 1.71613 13.227 1.19713 11.713 1.04413C10.413 0.913129 8.985 1.04013 8 1.88713Z" fill="#FFF0D1"/>
</svg>
