<svg width="16" height="16" viewBox="0 0 16 16" fill="none" xmlns="http://www.w3.org/2000/svg">
<path d="M9.828 0.122007C9.88208 0.16901 9.92543 0.227088 9.9551 0.292305C9.98478 0.357522 10.0001 0.428356 10 0.500007V1.00001H10.5C10.8978 1.00001 11.2794 1.15804 11.5607 1.43935C11.842 1.72065 12 2.10218 12 2.50001V15H13.5C13.6326 15 13.7598 15.0527 13.8536 15.1465C13.9473 15.2402 14 15.3674 14 15.5C14 15.6326 13.9473 15.7598 13.8536 15.8536C13.7598 15.9473 13.6326 16 13.5 16H0.5C0.367392 16 0.240215 15.9473 0.146447 15.8536C0.0526784 15.7598 0 15.6326 0 15.5C0 15.3674 0.0526784 15.2402 0.146447 15.1465C0.240215 15.0527 0.367392 15 0.5 15H2V1.50001C2.00002 1.37954 2.04353 1.26313 2.12253 1.17218C2.20154 1.08124 2.31072 1.02187 2.43 1.00501L9.43 0.00500688C9.50085 -0.00511117 9.57304 9.818e-05 9.64171 0.0202828C9.71037 0.0404675 9.7739 0.075157 9.828 0.122007ZM10.5 2.00001H10V15H11V2.50001C11 2.3674 10.9473 2.24022 10.8536 2.14645C10.7598 2.05269 10.6326 2.00001 10.5 2.00001ZM3 1.93401V15H9V1.07701L3 1.93401Z" fill="#FFF0D1"/>
</svg>
