<svg width="33" height="30" viewBox="0 0 33 30" fill="none" xmlns="http://www.w3.org/2000/svg">
<path d="M5.90824 28.7021C5.90824 28.7019 5.90792 28.7019 5.90788 28.7021C5.74872 29.5891 6.65132 30.2817 7.44684 29.886L15.609 25.8189C16.1707 25.5389 16.8313 25.539 17.3931 25.819L25.5532 29.886C26.3493 30.282 27.2527 29.588 27.0918 28.7021L25.5754 20.323C25.4537 19.6502 25.684 18.9619 26.1862 18.4979L32.6439 12.5313C33.3246 11.9034 32.9739 10.7555 32.0623 10.6315L22.9842 9.38065C22.342 9.29217 21.7825 8.89788 21.4832 8.32283L17.456 0.586243C17.3702 0.410834 17.2348 0.262634 17.0656 0.15886C16.8963 0.0550867 16.7002 0 16.5 0C16.2998 0 16.1037 0.0550867 15.9345 0.15886C15.7652 0.262634 15.6299 0.410834 15.5441 0.586243L11.5168 8.32468C11.2175 8.89982 10.658 9.29417 10.0157 9.38267L0.937706 10.6335C0.0281597 10.7575 -0.324521 11.9054 0.354029 12.5333L7.28849 18.9385C7.49501 19.1293 7.58976 19.4124 7.5397 19.689L5.9086 28.7021C5.90856 28.7023 5.90824 28.7023 5.90824 28.7021ZM16.0246 23.1665L11.9922 25.1756C10.519 25.9096 8.83931 24.6492 9.13227 23.0295L9.85373 19.0408C9.88818 18.8587 9.87551 18.6711 9.81684 18.4948C9.75817 18.3186 9.65534 18.1592 9.51755 18.0309L6.6316 15.3635C5.39113 14.217 6.04267 12.1442 7.716 11.9135L11.8811 11.3394C12.0539 11.3133 12.2177 11.2473 12.3587 11.1471C12.4997 11.0469 12.6139 10.9153 12.6917 10.7635L14.7236 6.85723C15.4704 5.42151 17.5243 5.42105 18.2718 6.85644L20.3063 10.7635C20.384 10.9153 20.4982 11.0469 20.6393 11.1471C20.7803 11.2473 20.9441 11.3133 21.1168 11.3394L25.2806 11.9123C26.9542 12.1426 27.6061 14.2157 26.3654 15.3624L23.4804 18.0289C23.3423 18.1574 23.2393 18.3171 23.1806 18.4937C23.1219 18.6704 23.1094 18.8584 23.1442 19.0408L23.8657 23.0295C24.1587 24.6492 22.4789 25.9096 21.0057 25.1756L16.9734 23.1665C16.8265 23.0925 16.6634 23.0539 16.498 23.0539C16.3325 23.0539 16.1715 23.0925 16.0246 23.1665Z" fill="#FFF0D1"/>
</svg>
